#!OML:ASF I:\Actors\actors\Patient Classification 1\Patient 1\Session 1\Subject1.ASF
:FULLY-SPECIFIED
:DEGREES
780
root 0.75537 17.5441 9.43147 11.8608 -4.25544 -9.75503
lowerback 0.73273 2.17391 5.58833
upperback -7.80362 3.29146 0.934338
thorax -8.37853 1.2696 -2.3865
lowerneck -14.6294 -2.39926 -0.517728
upperneck 30.1445 -5.80289 7.52807
head 12.7278 -1.66126 2.09917
rclavicle 9.98893e-015 2.54444e-014
rhumerus 19.6261 57.1088 -54.2226
rradius 95.7772
rwrist -11.1586
rhand 10.6655 -68.6752
rfingers 7.12502
rthumb 35.7573 -264.949
lclavicle 9.98893e-015 2.54444e-014
lhumerus -19.1543 -35.6866 69.8505
lradius 102.144
lwrist -20.5397
lhand -23.947 -29.9002
lfingers 7.12502
lthumb 2.52851 0.0645668
rfemur -7.30981 25.1481 24.4556
rtibia 3.111
rfoot -11.0724 -21.5951
rtoes -1.61229
lfemur 5.44978 -48.1241 -12.1268
ltibia -4.65997
lfoot -32.3905 56.1633
ltoes 16.9256
781
root 0.761014 17.5425 9.42431 12.0996 -5.35507 -9.68906
lowerback 0.711683 2.55177 5.60429
upperback -7.88607 3.78764 0.732658
thorax -8.40238 1.50249 -2.64297
lowerneck -14.6582 -2.44383 -0.491452
upperneck 30.0482 -5.8775 7.55745
head 12.6991 -1.68982 2.09193
rclavicle -3.02153e-014 -2.8625e-014
rhumerus 21.0748 56.7546 -54.8588
rradius 93.9859
rwrist -11.0962
rhand 10.2738 -68.5418
rfingers 7.12502
rthumb 35.386 -264.993
lclavicle -3.02153e-014 -2.8625e-014
lhumerus -19.2271 -35.5333 69.8849
lradius 102.237
lwrist -20.4242
lhand -24.0655 -30.128
lfingers 7.12502
lthumb 2.41413 -0.161945
rfemur -7.77363 25.2964 24.0922
rtibia 3.2257
rfoot -10.7783 -20.6589
rtoes -2.20825
lfemur 5.91111 -48.5789 -12.7457
ltibia -4.71406
lfoot -35.2715 56.9355
ltoes 19.0798
782
root 0.766239 17.543 9.41883 12.3156 -6.28724 -9.53134
lowerback 0.697738 2.86007 5.54124
upperback -7.96394 4.18482 0.508804
thorax -8.43299 1.6911 -2.87208
lowerneck -14.7668 -2.48704 -0.377461
upperneck 29.9686 -5.9541 7.50922
head 12.6889 -1.71686 2.03881
rclavicle -2.34566e-014 -6.36111e-015
rhumerus 22.1549 56.286 -55.7322
rradius 92.1539
rwrist -10.3999
rhand 9.28456 -68.5319
rfingers 7.12502
rthumb 34.4475 -264.785
lclavicle -2.34566e-014 -6.36111e-015
lhumerus -19.3443 -35.3274 69.8961
lradius 102.447
lwrist -20.2399
lhand -24.0687 -30.2271
lfingers 7.12502
lthumb 2.41103 -0.261014
rfemur -8.16092 25.3845 23.6427
rtibia 3.24068
rfoot -10.522 -19.8484
rtoes -2.51309
lfemur 6.18114 -48.8606 -13.3135
ltibia -4.71239
lfoot -37.4281 57.4688
ltoes 20.652
783
root 0.771013 17.5447 9.41226 12.505 -6.97717 -9.43459
lowerback 0.684293 3.08104 5.45013
upperback -8.01556 4.46976 0.392763
thorax -8.45329 1.83168 -2.96361
lowerneck -14.8373 -2.45445 -0.210848
upperneck 29.8342 -5.90364 7.38548
head 12.6361 -1.69376 1.96618
rclavicle 1.33186e-014 7.95139e-015
rhumerus 23.02 55.8019 -56.4743
rradius 90.5235
rwrist -9.14109
rhand 8.46857 -68.95
rfingers 7.12502
rthumb 33.6724 -264.194
lclavicle 1.33186e-014 7.95139e-015
lhumerus -19.4927 -35.041 70.0083
lradius 102.679
lwrist -20.1005
lhand -24.1372 -30.2513
lfingers 7.12502
lthumb 2.34485 -0.284422
rfemur -8.4801 25.3968 23.3089
rtibia 3.20552
rfoot -10.3351 -19.2038
rtoes -2.65469
lfemur 6.29004 -49.1645 -13.6839
ltibia -4.6174
lfoot -39.1329 57.8707
ltoes 21.7117
784
root 0.774718 17.5471 9.4043 12.6608 -7.3753 -9.49563
lowerback 0.68565 3.19767 5.47919
upperback -8.049 4.62827 0.375945
thorax -8.47393 1.9057 -3.00895
lowerneck -14.8899 -2.39608 -0.135289
upperneck 29.7217 -5.81705 7.34253
head 12.5927 -1.65439 1.94691
rclavicle 1.49089e-015 3.97569e-015
rhumerus 23.5381 55.3581 -57.162
rradius 89.3123
rwrist -7.98206
rhand 8.84861 -68.558
rfingers 7.12502
rthumb 34.0335 -264.666
lclavicle 1.49089e-015 3.97569e-015
lhumerus -19.665 -34.6764 70.1752
lradius 102.85
lwrist -20.1064
lhand -24.2594 -30.3532
lfingers 7.12502
lthumb 2.22679 -0.385121
rfemur -8.71789 25.4705 23.2218
rtibia 3.16751
rfoot -10.2087 -18.9026
rtoes -2.75923
lfemur 6.27516 -49.4032 -13.6982
ltibia -4.56301
lfoot -40.4711 58.0784
ltoes 22.6472
785
root 0.776633 17.5488 9.39944 12.7732 -7.48286 -9.64558
lowerback 0.64379 3.20166 5.38405
upperback -8.06173 4.63868 0.55231
thorax -8.48353 1.92444 -2.76925
lowerneck -14.9999 -2.34207 -0.172383
upperneck 29.7255 -5.70394 7.25896
head 12.6087 -1.61638 1.93772
rclavicle -1.37658e-014 3.97569e-015
rhumerus 23.7459 55.0201 -57.5534
rradius 88.5689
rwrist -7.36906
rhand 9.27468 -65.2665
rfingers 7.12502
rthumb 34.4381 -268.048
lclavicle -1.37658e-014 3.97569e-015
lhumerus -19.8868 -34.1855 70.5474
lradius 102.95
lwrist -20.2295
lhand -24.3958 -30.5779
lfingers 7.12502
lthumb 2.0951 -0.608444
rfemur -8.8085 25.5849 23.3194
rtibia 3.07072
rfoot -10.0867 -18.939
rtoes -2.91793
lfemur 6.11884 -49.3368 -13.4013
ltibia -4.59592
lfoot -40.6816 58.119
ltoes 22.8916
786
root 0.777611 17.5503 9.39659 12.8412 -7.36515 -9.77864
lowerback 0.650753 3.13679 5.46688
upperback -8.08391 4.5608 0.600697
thorax -8.51756 1.8805 -2.76018
lowerneck -15.1526 -2.30399 -0.145643
upperneck 29.813 -5.66981 7.26208
head 12.6749 -1.5916 1.94032
rclavicle 1.14301e-015 -2.38542e-014
rhumerus 23.4244 54.6653 -58.0958
rradius 88.353
rwrist -7.47974
rhand 10.7819 -66.3692
rfingers 7.12502
rthumb 35.8676 -267.282
lclavicle 1.14301e-015 -2.38542e-014
lhumerus -20.0274 -33.8589 70.6843
lradius 103.071
lwrist -20.2912
lhand -24.5238 -30.6816
lfingers 7.12502
lthumb 1.97149 -0.711003
rfemur -8.80304 25.6787 23.4562
rtibia 2.94457
rfoot -10.0004 -19.1635
rtoes -3.27915
lfemur 5.91611 -49.3089 -13.068
ltibia -4.60159
lfoot -40.3515 58.146
ltoes 22.6299
787
root 0.777265 17.5516 9.39412 12.8504 -7.10309 -9.85241
lowerback 0.711094 3.03598 5.50183
upperback -8.10771 4.43413 0.6192
thorax -8.58954 1.81334 -2.75638
lowerneck -15.3044 -2.30232 -0.107717
upperneck 29.9252 -5.68837 7.24609
head 12.7529 -1.59066 1.92601
rclavicle 2.39039e-014 5.56597e-015
rhumerus 22.7913 54.5511 -58.3938
rradius 88.7404
rwrist -8.2813
rhand 11.3865 -67.4349
rfingers 7.12502
rthumb 36.4402 -266.358
lclavicle 2.39039e-014 5.56597e-015
lhumerus -20.1903 -33.6505 70.8178
lradius 103.208
lwrist -20.2748
lhand -24.5881 -30.6094
lfingers 7.12502
lthumb 1.90934 -0.638182
rfemur -8.76214 25.7029 23.5657
rtibia 2.88278
rfoot -10.0291 -19.4639
rtoes -3.41638
lfemur 5.79019 -49.5585 -12.8719
ltibia -4.54818
lfoot -40.4113 58.1465
ltoes 22.6899
788
root 0.77515 17.5505 9.39569 12.8237 -6.67109 -9.9734
lowerback 0.703978 2.8821 5.5349
upperback -8.10639 4.23414 0.696074
thorax -8.60491 1.71518 -2.67965
lowerneck -15.4116 -2.31426 -0.0428429
upperneck 30.0099 -5.70987 7.16423
head 12.8068 -1.59849 1.88065
rclavicle -2.94698e-014 3.10104e-014
rhumerus 22.0256 54.6851 -58.3793
rradius 89.4488
rwrist -9.04049
rhand 10.8183 -66.6773
rfingers 7.12502
rthumb 35.9021 -266.982
lclavicle -2.94698e-014 3.10104e-014
lhumerus -20.348 -33.5034 70.9642
lradius 103.316
lwrist -20.1811
lhand -24.5553 -30.5445
lfingers 7.12502
lthumb 1.94103 -0.573551
rfemur -8.66675 25.5794 23.7896
rtibia 2.87916
rfoot -10.151 -19.7736
rtoes -3.2095
lfemur 5.66185 -49.7291 -12.5695
ltibia -4.5454
lfoot -40.0549 58.0546
ltoes 22.5654
